<?xml version="1.0"?>
<svg xmlns="http://www.w3.org/2000/svg" viewBox="0 0 30 30" width="24px" height="24px">
    <path d="M15,3C8.383,3,3,8.383,3,15c0,6.617,5.383,12,12,12s12-5.383,12-12C27,8.383,21.617,3,15,3z M20,18.099 C20,18.948,19.315,20,17.751,20c-1.397,0-1.749-0.895-1.749-1.5c0-0.743,0.448-1.503,1.751-1.503c1.18,0,1.248-0.3,1.248-0.895 v-4.068l-7,0.778c0,2.281,0,5.944,0,6.286C12,19.948,11.315,21,9.751,21c-1.397,0-1.749-0.895-1.749-1.5 c0-0.743,0.448-1.503,1.751-1.503c1.18,0,1.248-0.3,1.248-0.895l0-6.597c0-0.331,0.249-0.609,0.578-0.646l7.7-0.856 C19.663,8.961,20,9.263,20,9.65C20,9.65,20,17.762,20,18.099z" fill="#bebebe"/>
</svg>
